<?xml version="1.0" encoding="iso-8859-1"?>
<!-- Generator: Adobe Illustrator 19.0.0, SVG Export Plug-In . SVG Version: 6.00 Build 0)  -->
<svg version="1.1" id="Capa_1" xmlns="http://www.w3.org/2000/svg" xmlns:xlink="http://www.w3.org/1999/xlink" x="0px" y="0px"
	 viewBox="0 0 490 490" style="enable-background:new 0 0 490 490;" xml:space="preserve">
<g>
	<g>
		<path d="M468.7,387c-11.4,0-20.8,9.4-20.8,20.8v40.6h-40.6c-11.4,0-20.8,9.4-20.8,20.8s9.4,20.8,20.8,20.8h61.4
			c11.4,0,20.8-9.4,20.8-20.8v-61.4C489.5,396.4,480.1,387,468.7,387z"/>
		<path d="M299.1,448.4H190.9c-11.4,0-20.8,9.4-20.8,20.8s9.4,20.8,20.8,20.8h108.2c11.4,0,20.8-9.4,20.8-20.8
			C319.9,457.7,310.5,448.4,299.1,448.4z"/>
		<path d="M82.7,448.4H42.1v-40.6c0-11.4-9.4-20.8-20.8-20.8s-20.8,9.4-20.8,20.8v61.4c0,11.4,9.4,20.8,20.8,20.8h60.3
			c11.4,0,21.8-9.4,21.8-20.8C103.5,457.7,94.2,448.4,82.7,448.4z"/>
		<path d="M21.3,320.4c10.4,0,19.8-9.4,20.8-20.8V191.4c0-11.4-9.4-20.8-20.8-20.8S0.5,180,0.5,191.4v108.2
			C0.5,311.1,9.9,320.4,21.3,320.4z"/>
		<path d="M82.7,1H21.3C9.9,1,0.5,10.4,0.5,21.8v60.3c0,11.4,9.4,20.8,20.8,20.8c10.4,0,19.8-9.4,19.8-19.8V42.7h41.6
			c11.4,0,20.8-9.4,20.8-20.8C103.5,10.4,94.2,1,82.7,1z"/>
		<path d="M190.9,41.6h108.2c11.4,0,20.8-9.4,20.8-20.8S310.5,0,299.1,0H190.9c-11.4,0-20.8,9.4-20.8,20.8S179.5,41.6,190.9,41.6z"
			/>
		<path d="M468.7,0h-61.4c-11.4,0-20.8,9.4-20.8,20.8s9.4,20.8,20.8,20.8h40.6v40.6c0,11.4,9.4,20.8,20.8,20.8
			c11.4,0,20.8-9.4,20.8-20.8V20.8C489.5,9.4,480.1,0,468.7,0z"/>
		<path d="M468.7,170.6c-11.4,0-20.8,9.4-20.8,20.8v108.2c0,11.4,9.4,20.8,20.8,20.8c11.4,0,20.8-9.4,20.8-20.8V191.4
			C489.5,180,480.1,170.6,468.7,170.6z"/>
		<path d="M245,116.5c-71.8,0-129,58.3-129,129c0,71.8,58.3,129,129,129s129-58.3,129-129C374,173.7,315.7,116.5,245,116.5z
			 M245,332.9c-47.9,0-87.4-38.5-87.4-87.4c0-47.9,38.5-87.4,87.4-87.4s87.4,38.5,87.4,87.4C332.4,293.4,293.9,332.9,245,332.9z"/>
	</g>
</g>
<g>
</g>
<g>
</g>
<g>
</g>
<g>
</g>
<g>
</g>
<g>
</g>
<g>
</g>
<g>
</g>
<g>
</g>
<g>
</g>
<g>
</g>
<g>
</g>
<g>
</g>
<g>
</g>
<g>
</g>
</svg>
