<svg enable-background="new 0 0 490 490" version="1.1" viewBox="0 0 490 490" xml:space="preserve" xmlns="http://www.w3.org/2000/svg" clacc="icon">

	
		<path d="m454.05 150.8-154-145.6c-3.1-3.1-8.3-5.2-13.5-5.2h-236.1c-11.4 0-20.8 9.4-20.8 20.8v448.4c0 11.4 9.4 20.8 20.8 20.8h389.1c11.4 0 20.8-9.4 20.8-21.8v-302.8c0-5.2-2.1-10.4-6.3-14.6zm-147.7-82.5 82.7 78.4h-82.7v-78.4zm113.4 381.1h-349.6v-407.8h195.6v124.8c0 11.4 9.4 20.8 20.8 20.8h133.2v262.2z"/>
		
			<path d="m301.85 302.3c-12.3 0-22.4-10-22.4-22.4s10-22.4 22.4-22.4c6.2 0 12 2.5 16.3 7.1 5.7 6 15.1 6.3 21.1 0.6s6.3-15.1 0.6-21.1c-9.8-10.5-23.7-16.5-38.1-16.5-28.8 0-52.3 23.5-52.3 52.3s23.5 52.3 52.3 52.3c12.3 0 22.4 10 22.4 22.4s-10 22.4-22.4 22.4c-6.2 0-12-2.5-16.3-7.1-5.7-6-15.1-6.3-21.1-0.6s-6.3 15.1-0.6 21.1c9.8 10.5 23.7 16.5 38.1 16.5 28.8 0 52.3-23.5 52.3-52.3s-23.4-52.3-52.3-52.3z"/>
			<path d="m213.05 227.6c-8.3 0-15 6.7-15 15v118.2c0 9-7.3 16.2-16.2 16.2-9 0-16.2-7.3-16.2-16.2v-11.3c0-8.3-6.7-15-15-15s-15 6.7-15 15v11.3c0 25.4 20.7 46.1 46.1 46.1s46.1-20.7 46.1-46.1v-118.2c0.2-8.3-6.5-15-14.8-15z"/>
		
</svg>

<?xml version="1.0" encoding="UTF-8"?>
<svg enable-background="new 0 0 490 490" version="1.1" viewBox="0 0 490 490" xml:space="preserve" xmlns="http://www.w3.org/2000/svg" class="icon">

	
		<path d="m468.7 387c-11.4 0-20.8 9.4-20.8 20.8v40.6h-40.6c-11.4 0-20.8 9.4-20.8 20.8s9.4 20.8 20.8 20.8h61.4c11.4 0 20.8-9.4 20.8-20.8v-61.4c0-11.4-9.4-20.8-20.8-20.8z"/>
		<path d="m299.1 448.4h-108.2c-11.4 0-20.8 9.4-20.8 20.8s9.4 20.8 20.8 20.8h108.2c11.4 0 20.8-9.4 20.8-20.8 0-11.5-9.4-20.8-20.8-20.8z"/>
		<path d="m82.7 448.4h-40.6v-40.6c0-11.4-9.4-20.8-20.8-20.8s-20.8 9.4-20.8 20.8v61.4c0 11.4 9.4 20.8 20.8 20.8h60.3c11.4 0 21.8-9.4 21.8-20.8 0.1-11.5-9.2-20.8-20.7-20.8z"/>
		<path d="m21.3 320.4c10.4 0 19.8-9.4 20.8-20.8v-108.2c0-11.4-9.4-20.8-20.8-20.8s-20.8 9.4-20.8 20.8v108.2c0 11.5 9.4 20.8 20.8 20.8z"/>
		<path d="M82.7,1H21.3C9.9,1,0.5,10.4,0.5,21.8v60.3c0,11.4,9.4,20.8,20.8,20.8c10.4,0,19.8-9.4,19.8-19.8V42.7h41.6    c11.4,0,20.8-9.4,20.8-20.8C103.5,10.4,94.2,1,82.7,1z"/>
		<path d="M190.9,41.6h108.2c11.4,0,20.8-9.4,20.8-20.8S310.5,0,299.1,0H190.9c-11.4,0-20.8,9.4-20.8,20.8S179.5,41.6,190.9,41.6z"/>
		<path d="m468.7 0h-61.4c-11.4 0-20.8 9.4-20.8 20.8s9.4 20.8 20.8 20.8h40.6v40.6c0 11.4 9.4 20.8 20.8 20.8s20.8-9.4 20.8-20.8v-61.4c0-11.4-9.4-20.8-20.8-20.8z"/>
		<path d="m468.7 170.6c-11.4 0-20.8 9.4-20.8 20.8v108.2c0 11.4 9.4 20.8 20.8 20.8s20.8-9.4 20.8-20.8v-108.2c0-11.4-9.4-20.8-20.8-20.8z"/>
		<path d="m245 116.5c-71.8 0-129 58.3-129 129 0 71.8 58.3 129 129 129s129-58.3 129-129c0-71.8-58.3-129-129-129zm0 216.4c-47.9 0-87.4-38.5-87.4-87.4 0-47.9 38.5-87.4 87.4-87.4s87.4 38.5 87.4 87.4c0 47.9-38.5 87.4-87.4 87.4z"/>
	
</svg>
